<?xml version="1.0" standalone="no"?>
<!DOCTYPE svg PUBLIC "-//W3C//DTD SVG 20010904//EN"
 "http://www.w3.org/TR/2001/REC-SVG-20010904/DTD/svg10.dtd">
<svg version="1.0" xmlns="http://www.w3.org/2000/svg"
 width="2084.000000pt" height="2084.000000pt" viewBox="0 0 2084.000000 2084.000000"
 preserveAspectRatio="xMidYMid meet">
<metadata>
Created by potrace 1.14, written by Peter Selinger 2001-2017
</metadata>
<g transform="translate(0.000000,2084.000000) scale(0.100000,-0.100000)"
fill="#000000" stroke="none">
<path d="M514 20813 c-4 -14 -21 -92 -38 -172 l-31 -145 -40 -8 c-195 -36
-373 -70 -387 -74 -17 -5 -18 -31 -18 -372 l0 -367 36 55 c21 30 37 56 38 56
1 1 123 25 271 53 149 29 447 86 664 127 216 41 394 74 396 72 1 -2 -155 -223
-347 -492 -192 -268 -348 -489 -346 -491 5 -4 989 -618 1065 -666 56 -34 69
-46 55 -51 -9 -4 -318 -64 -686 -134 l-668 -126 -201 136 c-110 74 -202 134
-204 132 -2 -1 11 -76 28 -165 17 -90 29 -165 26 -167 -2 -2 -32 -9 -66 -15
l-61 -11 0 -1170 0 -1169 73 62 c96 82 161 111 258 117 88 5 148 -11 244 -63
68 -38 215 -159 215 -178 -1 -7 -178 -181 -395 -387 l-395 -375 0 -53 0 -52
123 108 c270 238 558 465 642 507 30 15 60 20 120 20 68 -1 90 -5 145 -31 121
-57 270 -194 352 -324 53 -83 72 -144 72 -224 1 -87 -19 -133 -98 -231 -169
-208 -693 -745 -1114 -1140 l-242 -227 0 -548 0 -548 38 -6 c20 -3 73 -8 117
-11 44 -4 94 -8 110 -11 17 -2 86 -8 155 -14 69 -6 193 -17 275 -25 83 -8 177
-17 210 -20 33 -3 81 -8 108 -10 26 -3 68 -7 95 -10 26 -2 83 -7 127 -10 44
-4 93 -9 108 -11 l28 -6 -2 -166 c-1 -92 -5 -203 -10 -247 -27 -249 -100 -608
-122 -600 -18 7 -1228 345 -1233 345 -2 0 -4 -146 -4 -325 l0 -324 36 -10
c409 -113 594 -168 594 -176 0 -5 -15 -64 -34 -130 -19 -66 -33 -121 -31 -123
1 -2 45 21 96 51 52 29 128 72 169 94 l75 41 525 -147 c289 -81 580 -163 648
-182 67 -19 122 -37 122 -40 0 -3 -89 -53 -197 -110 -108 -57 -240 -127 -293
-154 -413 -219 -560 -299 -560 -306 0 -4 10 -24 21 -44 14 -24 27 -34 38 -31
9 3 279 80 601 171 322 91 615 175 651 185 l66 20 22 85 c13 47 25 85 27 85 2
0 61 -16 132 -36 70 -20 136 -36 147 -36 11 0 517 142 1125 315 608 173 1142
325 1188 338 45 12 82 26 82 30 0 5 -16 37 -35 73 l-36 64 33 20 c18 11 159
90 313 177 154 87 325 184 380 215 55 32 233 133 395 225 l295 168 185 -17
c102 -9 210 -19 240 -22 132 -11 139 -14 168 -50 45 -57 100 -153 118 -208 9
-28 18 -52 19 -54 5 -5 339 89 349 98 4 4 -11 40 -34 80 -23 39 -40 73 -38 76
3 2 96 -5 209 -16 112 -11 226 -20 252 -20 39 0 306 70 629 166 13 4 17 25 23
109 4 58 10 105 14 105 3 0 26 -36 50 -81 24 -44 49 -83 55 -85 11 -4 352 89
361 98 2 2 -45 89 -104 193 -59 105 -152 268 -206 364 l-98 173 17 177 c10 96
18 177 19 178 3 2 296 169 752 428 231 131 548 311 705 400 624 355 713 405
716 402 2 -1 104 -180 227 -397 123 -217 251 -443 285 -502 l61 -107 -112 -65
c-62 -35 -209 -119 -327 -186 -118 -67 -219 -125 -223 -129 -6 -6 178 -346
204 -375 9 -10 3220 903 3234 920 6 7 153 93 327 192 l316 179 158 -54 158
-53 515 146 c284 81 519 150 523 153 4 4 -132 54 -302 111 -170 58 -310 108
-310 112 0 3 24 20 53 36 28 16 216 123 417 237 491 279 691 392 1040 590 162
92 345 196 406 231 l110 64 578 -198 c318 -108 579 -201 579 -205 1 -4 -240
-119 -535 -255 -296 -136 -538 -251 -538 -257 0 -41 9 -39 671 149 360 102
659 186 665 186 5 0 19 -28 30 -62 l20 -63 31 90 c20 61 35 89 44 88 18 -4
1072 -363 1077 -368 2 -2 -83 -257 -188 -567 -124 -363 -199 -569 -211 -580
-11 -9 -86 -58 -168 -108 l-149 -91 19 -67 c11 -37 49 -173 85 -302 37 -129
70 -238 73 -242 4 -4 202 112 441 259 239 147 463 278 497 292 l63 26 -3 944
-2 944 -562 191 c-309 106 -565 194 -568 197 -3 3 44 111 103 240 60 129 185
400 278 603 93 203 174 370 179 373 6 2 137 -55 291 -126 l279 -129 3 341 c2
313 1 343 -15 355 -16 11 -16 12 0 12 16 0 17 26 17 310 l0 310 -72 0 c-40 0
-187 0 -325 0 l-253 -1 -1 88 c0 48 -2 174 -5 278 -2 105 -4 200 -4 212 l0 22
-384 -6 -384 -6 -7 394 c-3 217 -5 480 -3 584 l3 190 145 2 c80 1 403 2 718 3
l572 0 -1 865 -1 865 -963 0 -963 0 23 -77 c13 -43 20 -81 16 -84 -5 -5 -1074
-311 -1095 -313 -5 -1 -39 105 -76 234 l-68 235 -147 3 c-138 2 -147 1 -141
-15 22 -57 47 -167 52 -233 16 -193 -79 -328 -288 -410 -81 -31 -1592 -466
-1659 -476 -34 -6 -40 -4 -48 17 -6 13 -72 240 -146 504 -75 264 -145 510
-156 548 l-20 67 -189 0 c-105 0 -190 -2 -190 -5 0 -3 11 -31 24 -63 72 -173
172 -536 201 -727 17 -119 19 -253 4 -307 l-10 -38 -157 -1 c-86 0 -221 -3
-299 -5 -79 -3 -143 -2 -143 2 0 8 309 1109 317 1130 4 12 -43 14 -316 14
-177 0 -321 -2 -321 -4 0 -10 -282 -1011 -286 -1015 -3 -3 -39 4 -82 16 -166
44 -1016 284 -1023 289 -4 2 -1 26 6 52 48 162 184 656 181 659 -1 2 -190 2
-420 1 l-417 -3 192 -313 c105 -172 189 -315 187 -317 -2 -2 -304 80 -671 183
l-668 187 -72 130 -73 130 -71 3 -71 3 -17 -58 c-27 -98 -32 -108 -46 -107 -8
1 -145 38 -304 83 l-291 81 -2374 -2 -2375 -3 120 -23 c539 -104 1470 -323
1562 -368 97 -47 168 -137 197 -249 19 -70 21 -221 5 -313 -11 -61 -12 -64
-38 -60 -32 6 -259 54 -736 156 l-360 77 -2 59 c-2 91 -9 105 -56 126 -76 33
-572 146 -743 168 -34 5 -71 5 -82 1 -46 -17 -69 -121 -36 -167 36 -52 154
-91 497 -167 539 -120 1130 -285 1294 -362 143 -68 200 -243 159 -483 -41
-240 -124 -383 -256 -444 -95 -43 -357 -14 -1110 124 -216 40 -759 155 -767
164 -3 2 38 25 91 50 53 25 96 47 96 49 0 3 -59 125 -131 271 -73 147 -130
269 -127 271 2 2 21 2 41 -2 l38 -6 -7 -56 c-4 -41 -2 -67 9 -93 15 -35 20
-38 114 -67 139 -43 575 -139 731 -161 95 -13 121 5 137 93 8 40 -12 87 -47
112 -39 27 -194 71 -458 130 -220 49 -436 100 -573 136 -38 10 -38 10 -173
287 -74 152 -187 384 -251 515 l-117 237 -338 0 c-186 0 -338 -2 -338 -4 0 -7
111 -237 299 -620 100 -203 180 -371 178 -372 -2 -2 -79 75 -171 171 l-168
175 -126 -121 c-100 -95 -128 -117 -131 -103 -2 11 -41 210 -85 444 l-82 425
-829 3 -830 2 -145 -71 c-156 -76 -137 -71 -543 -149 -140 -26 -247 -38 -247
-26 0 6 38 191 46 220 l6 26 -191 0 -191 0 -6 -27z m19971 -468 c4 -49 9 -99
12 -110 10 -49 14 -465 4 -484 -11 -20 -21 -20 -434 -20 -232 0 -747 -4 -1143
-7 l-721 -7 1 48 1 48 1130 322 c756 215 1132 318 1136 311 4 -6 10 -51 14
-101z m-17565 -24 c0 -5 36 -197 80 -427 45 -231 80 -428 78 -440 -2 -13 -199
-208 -493 -488 -402 -384 -491 -464 -497 -449 -4 10 -19 79 -32 153 -14 74
-54 288 -90 475 -164 853 -183 960 -177 967 3 4 67 18 141 32 185 34 525 100
760 146 217 42 230 44 230 31z m5080 -66 c436 -90 950 -202 955 -207 3 -3 -6
-60 -21 -127 -15 -67 -25 -124 -22 -127 3 -3 77 41 164 97 l157 102 146 -31
c80 -17 371 -79 646 -137 275 -58 508 -109 517 -113 12 -5 -61 -55 -269 -182
-667 -409 -728 -448 -727 -462 1 -8 93 -145 204 -304 112 -159 278 -395 368
-524 91 -129 172 -243 180 -252 8 -10 13 -18 10 -18 -10 0 -1273 270 -1322
282 l-50 13 -130 202 c-72 110 -134 199 -137 197 -4 -2 -10 -21 -13 -41 -28
-158 -60 -283 -73 -283 -8 0 -213 42 -456 94 -243 52 -490 105 -549 117 -122
25 -118 19 -93 122 8 34 69 316 135 627 66 311 129 608 140 660 12 52 30 138
40 190 31 150 28 143 53 137 12 -3 78 -17 147 -32z m3385 -719 c242 -52 490
-104 550 -117 61 -12 114 -25 118 -29 4 -4 -26 -164 -67 -356 -41 -192 -123
-574 -181 -849 -59 -275 -108 -503 -111 -506 -2 -4 -41 2 -86 12 -134 30
-1026 219 -1034 219 -11 0 -3 41 166 830 191 897 190 890 199 890 3 0 204 -42
446 -94z m-6980 -796 c296 -311 566 -595 602 -631 l64 -65 -416 -398 c-229
-218 -420 -396 -424 -394 -5 2 -250 257 -546 568 -296 311 -566 594 -602 631
l-64 65 417 397 c229 219 420 396 424 395 4 -2 249 -257 545 -568z m14625 -42
c0 -396 0 -402 -19 -373 -10 17 -80 140 -156 275 -191 339 -229 402 -238 402
-5 0 -167 -90 -362 -201 -194 -111 -360 -204 -369 -207 -14 -6 -16 20 -16 245
l0 250 93 3 c50 2 311 4 579 6 l487 2 1 -402z m-4490 369 c221 -29 337 -66
391 -124 105 -112 151 -387 144 -843 -5 -303 -29 -466 -87 -588 -35 -75 -82
-113 -175 -142 -208 -64 -494 -86 -1073 -83 -560 2 -730 33 -848 150 -103 103
-123 208 -129 668 -4 277 -2 363 11 465 33 247 77 351 171 402 97 52 312 92
554 104 70 4 128 9 131 11 12 11 802 -6 910 -20z m2605 13 c200 -25 305 -105
358 -274 18 -58 22 -94 22 -201 0 -162 -17 -224 -73 -259 -21 -12 -260 -149
-532 -303 -272 -155 -670 -380 -884 -502 l-389 -221 -107 0 -107 0 -6 308 c-4
169 -7 565 -7 879 l0 573 487 2 c994 6 1179 6 1238 -2z m-10370 -997 c561
-119 1024 -219 1028 -223 4 -4 -11 -35 -35 -70 -47 -69 -132 -135 -185 -146
l-33 -6 35 -41 c116 -135 120 -315 13 -534 -96 -199 -233 -266 -459 -227 -41
7 -291 87 -555 176 l-479 164 -307 194 c-170 107 -308 198 -308 201 0 4 100
103 223 220 122 117 224 216 226 221 1 5 -48 60 -109 123 -99 100 -112 117
-106 139 3 14 12 26 19 26 6 0 471 -97 1032 -217z m-4029 45 c-4 -68 -9 -154
-11 -193 -2 -38 -7 -133 -10 -210 -3 -77 -8 -169 -10 -205 -2 -36 -7 -130 -10
-210 -3 -80 -8 -171 -11 -204 l-4 -58 612 6 c337 4 642 9 678 12 l65 5 -50
-50 c-27 -28 -255 -247 -505 -486 l-455 -436 -249 6 -248 5 70 -77 c39 -43 91
-98 116 -123 25 -24 46 -47 46 -52 0 -9 -821 -793 -831 -793 -8 0 -1209 1257
-1208 1265 1 6 803 770 822 783 8 6 44 -23 109 -90 l98 -98 1 150 c1 187 3
242 9 248 3 2 223 212 489 466 266 253 486 461 489 461 2 0 1 -55 -2 -122z
m15678 -10 c23 -41 402 -708 689 -1213 75 -132 139 -247 142 -257 5 -13 -41
-43 -227 -148 -128 -73 -351 -200 -494 -281 -144 -82 -266 -149 -270 -149 -5
0 -81 127 -169 283 -87 155 -248 438 -357 629 -273 480 -338 596 -338 607 0 5
89 59 198 120 108 61 330 187 492 280 162 93 298 170 302 170 4 1 18 -18 32
-41z m-9929 -402 c165 -35 411 -88 547 -117 l246 -52 -140 -411 c-77 -226
-176 -518 -220 -648 -44 -131 -86 -238 -92 -238 -9 0 -1074 359 -1084 365 -1
1 349 1040 393 1163 3 7 14 10 27 7 13 -3 158 -34 323 -69z m1640 -350 c193
-41 595 -127 895 -190 300 -64 572 -122 605 -130 33 -8 162 -35 288 -62 l227
-48 0 -133 0 -133 45 0 c25 0 45 -2 45 -4 0 -13 -283 -833 -290 -840 -5 -5
-158 42 -366 113 -197 67 -361 118 -365 114 -4 -5 -48 -129 -98 -278 -51 -148
-93 -271 -95 -272 -3 -3 -299 96 -1023 344 l-71 24 95 280 c53 154 94 282 91
284 -2 3 -164 59 -359 126 -195 66 -357 123 -360 127 -5 5 201 624 255 768 3
9 21 8 68 -1 35 -8 221 -48 413 -89z m6811 -362 c-186 -616 -228 -756 -224
-759 2 -1 64 -16 138 -34 158 -36 1151 -270 1163 -274 4 -1 -88 -57 -205 -124
-741 -421 -964 -547 -987 -556 -22 -8 -69 1 -255 52 -125 35 -229 61 -231 59
-2 -3 64 -124 141 -255 l24 -42 -312 -177 c-172 -98 -398 -227 -503 -286 -104
-59 -192 -105 -196 -100 -27 31 -859 1516 -852 1522 4 4 114 67 243 140 129
73 348 197 487 276 139 79 256 144 262 144 5 0 39 -53 75 -117 36 -65 66 -116
66 -113 1 3 25 88 53 190 l52 184 385 219 c212 120 475 270 585 333 110 62
201 110 203 105 2 -5 -49 -179 -112 -387z m-11596 -89 c173 -109 320 -203 327
-209 8 -8 -22 -63 -119 -216 -72 -113 -179 -281 -238 -375 -59 -93 -165 -262
-237 -375 -71 -113 -174 -276 -229 -362 -54 -87 -102 -158 -107 -158 -4 0
-211 129 -460 286 -248 158 -464 294 -479 303 -16 9 -28 21 -28 26 0 6 38 69
83 140 l83 130 530 507 c313 301 535 506 544 504 9 -1 157 -92 330 -201z
m7836 -315 c240 -59 784 -219 784 -230 0 -3 -28 -20 -63 -39 -34 -19 -161 -90
-282 -159 -121 -69 -287 -163 -370 -210 -82 -47 -228 -129 -322 -183 -95 -55
-180 -99 -189 -99 -27 0 -120 58 -152 94 -49 57 -65 122 -59 245 13 269 155
537 317 599 83 32 152 28 336 -18z m-6464 -552 c710 -449 748 -472 1042 -657
314 -198 511 -323 519 -331 7 -6 -385 -642 -419 -679 -12 -13 -61 -11 -381 18
-332 30 -373 36 -416 58 -46 23 -50 23 -62 7 -12 -18 -46 -16 -330 12 -27 3
-237 22 -466 43 -433 40 -487 50 -476 89 2 9 72 125 156 256 l151 239 -33 22
c-17 11 -164 104 -325 205 -217 137 -291 189 -287 200 4 8 56 94 117 190 173
272 235 370 369 582 104 166 126 195 141 187 9 -5 324 -203 700 -441z m12924
25 c-28 -81 -47 -123 -55 -122 -3 0 -37 15 -76 33 l-70 32 50 29 c28 15 75 43
105 61 30 19 58 34 62 34 4 0 -4 -30 -16 -67z m-292 -195 c44 -43 58 -65 71
-112 24 -81 16 -195 -19 -301 -28 -84 -102 -240 -120 -254 -8 -5 -699 223
-789 261 -4 2 131 81 300 177 170 96 349 198 398 227 50 29 93 53 98 54 4 0
32 -24 61 -52z m-10237 -389 c389 -132 712 -245 717 -249 12 -12 -108 -136
-164 -169 -38 -22 -56 -26 -120 -26 -70 1 -79 3 -135 39 -33 22 -274 174 -535
339 -496 313 -487 307 -477 307 3 0 325 -108 714 -241z m3381 141 l105 -37
-69 -40 c-133 -78 -233 -133 -240 -133 -9 0 3 60 33 168 23 83 28 92 46 86 11
-4 68 -23 125 -44z m1728 -25 c84 -41 172 -124 244 -231 27 -42 50 -79 50 -82
0 -7 -25 -22 -335 -197 -99 -56 -290 -164 -424 -240 -226 -129 -244 -137 -254
-119 -6 10 -28 36 -49 58 -34 34 -42 38 -73 33 -44 -7 -210 -91 -435 -220
-219 -125 -311 -186 -321 -212 -10 -29 15 -96 46 -122 56 -49 148 -22 410 123
369 202 465 253 770 404 176 87 374 180 440 206 104 42 129 49 191 48 96 0
162 -34 253 -129 164 -173 263 -411 232 -561 -23 -119 -75 -171 -346 -351
-340 -227 -732 -461 -1271 -761 -474 -263 -526 -292 -679 -368 -265 -132 -420
-124 -561 29 -51 55 -174 229 -174 246 0 6 117 73 764 439 222 126 239 134
249 116 6 -10 27 -36 47 -56 54 -54 83 -52 228 21 131 65 432 235 564 317 102
65 116 89 88 151 -23 52 -63 83 -109 83 -48 0 -185 -63 -406 -187 -571 -319
-1067 -565 -1268 -629 -77 -24 -149 -10 -227 43 -158 109 -320 397 -323 573
-2 165 52 235 318 412 575 382 1934 1149 2110 1192 88 21 166 12 251 -29z
m-3524 -656 c260 -89 474 -162 476 -164 3 -3 -608 -349 -625 -353 -14 -4 -524
259 -552 284 -2 1 22 49 52 106 30 57 77 145 103 196 27 50 54 92 61 92 6 0
224 -73 485 -161z m-1670 -386 c222 -112 869 -485 868 -502 -1 -15 -418 -241
-445 -241 -19 0 -38 -11 -60 -35 -30 -31 -492 -302 -500 -293 -3 3 17 228 39
453 19 181 28 307 23 312 -4 3 -118 16 -254 29 -278 26 -334 32 -339 36 -1 2
17 32 40 66 126 188 243 265 393 259 68 -2 81 -7 235 -84z m-6827 -273 c50 -6
110 -12 135 -15 25 -3 149 -16 275 -30 324 -35 523 -62 578 -79 191 -57 286
-224 287 -504 0 -71 -3 -94 -14 -98 -13 -5 -86 1 -286 21 -25 3 -196 19 -380
36 -184 17 -366 34 -405 38 l-70 6 -2 51 c-3 74 -17 103 -59 120 -40 17 -253
46 -478 67 l-138 12 202 193 c226 215 196 199 355 182z m1970 -210 c72 -6 150
-13 175 -16 25 -2 191 -18 370 -34 336 -31 412 -39 418 -44 1 -2 -2 -53 -9
-113 -17 -171 -26 -169 140 -31 l143 121 87 -7 c47 -3 106 -9 131 -11 25 -3
122 -12 215 -20 248 -23 354 -33 420 -40 22 -3 92 -9 155 -15 237 -21 334 -31
339 -36 3 -2 -4 -11 -15 -18 -23 -17 -846 -667 -891 -704 l-33 -27 449 -500
c247 -275 448 -501 446 -503 -2 -2 -277 23 -360 33 -22 2 -143 14 -270 25
-553 50 -759 71 -766 78 -3 4 -74 89 -158 190 -83 100 -151 177 -152 170 0 -7
-2 -22 -4 -33 -1 -11 -6 -54 -9 -95 -4 -41 -10 -104 -13 -140 -3 -36 -6 -66
-7 -66 0 -1 -183 15 -406 36 -535 51 -625 59 -689 67 l-53 6 6 86 c6 70 38
418 61 662 8 78 44 473 51 544 3 33 9 101 14 150 5 50 12 122 15 160 11 140
14 147 43 141 15 -3 86 -10 157 -16z m3177 -295 c13 -2 57 -6 98 -9 41 -4 122
-11 180 -16 58 -6 130 -13 160 -16 30 -2 75 -7 100 -9 25 -3 70 -7 100 -10
173 -15 286 -26 296 -30 7 -2 8 -26 3 -71 -4 -38 -10 -98 -13 -134 -34 -371
-47 -511 -51 -545 -2 -22 -7 -69 -10 -105 -16 -183 -76 -828 -80 -850 -2 -14
-4 -29 -4 -34 -1 -4 -31 -6 -68 -2 -245 22 -725 66 -758 70 -22 3 -101 10
-175 17 -74 6 -138 15 -142 18 -4 4 -1 72 7 151 12 123 45 476 61 645 2 28 11
122 19 210 9 88 18 185 20 215 3 30 14 150 25 265 11 116 20 221 20 234 l0 24
94 -7 c52 -4 105 -9 118 -11z m-5860 -89 c59 -19 220 -41 423 -61 140 -14 433
-48 505 -60 14 -2 75 -11 136 -19 297 -41 567 -92 673 -127 111 -37 182 -124
210 -257 16 -77 14 -280 -5 -370 -32 -159 -110 -275 -219 -323 -46 -21 -66
-23 -250 -24 -186 -2 -331 3 -630 19 -66 4 -140 9 -165 11 -25 3 -83 7 -130
10 -147 10 -247 19 -855 80 -406 41 -690 78 -762 100 -29 9 -53 17 -53 18 0 2
124 122 276 266 l276 264 136 -12 c76 -7 158 -15 185 -18 l47 -6 0 -62 c0 -75
22 -109 78 -125 99 -26 637 -80 804 -80 84 0 88 1 105 27 24 36 23 111 0 147
-33 50 -120 71 -412 101 -88 8 -176 17 -195 20 -19 2 -57 6 -85 9 -191 20
-561 69 -568 75 -7 7 409 411 423 411 3 0 26 -7 52 -14z m488 -1801 c85 -8
180 -17 210 -20 30 -3 78 -7 105 -10 28 -3 75 -7 105 -10 51 -5 352 -33 1090
-101 162 -15 298 -29 302 -33 17 -15 38 -132 38 -211 -1 -169 -48 -307 -134
-388 -29 -27 -61 -52 -73 -56 -19 -6 -14 -13 42 -69 87 -87 108 -145 109 -295
1 -105 -1 -115 -21 -131 -11 -10 -106 -65 -210 -124 l-188 -106 -285 81 c-157
44 -548 153 -869 243 -321 90 -586 166 -588 169 -3 3 16 148 42 323 25 175 61
416 78 536 l31 217 30 0 c17 0 101 -7 186 -15z m2565 -240 c39 -3 113 -10 165
-15 108 -11 400 -38 475 -45 28 -2 79 -7 114 -11 l64 -6 -7 -51 c-3 -28 -11
-54 -18 -59 -7 -4 -293 -167 -635 -362 -443 -252 -623 -349 -623 -338 0 10 13
109 30 222 82 564 100 681 104 688 2 4 62 2 133 -4 70 -7 160 -16 198 -19z"/>
<path d="M295 14364 c-45 -23 -120 -84 -213 -171 l-83 -78 3 -174 3 -174 226
221 c125 122 232 235 239 251 10 26 10 35 -7 63 -24 41 -77 78 -112 78 -14 0
-39 -7 -56 -16z"/>
<path d="M18203 13556 c-293 -83 -535 -154 -538 -158 -7 -6 462 -1668 474
-1680 3 -3 254 64 556 151 498 142 550 159 547 176 -3 15 -302 1068 -458 1613
-10 37 -19 52 -32 51 -9 0 -256 -69 -549 -153z"/>
<path d="M16626 13105 l-639 -183 -95 -172 -96 -172 -36 129 c-23 80 -42 129
-51 131 -14 2 -1085 -301 -1094 -310 -5 -5 462 -1655 474 -1674 4 -6 200 45
553 146 301 85 549 158 552 161 3 3 -15 74 -39 159 -25 85 -44 159 -42 163 1
4 96 -45 211 -109 136 -75 216 -114 230 -112 59 12 1316 373 1316 379 0 4 -73
44 -162 89 -1043 528 -1030 521 -1015 544 7 11 52 86 99 166 47 80 166 282
265 450 251 426 237 400 221 399 -7 0 -300 -83 -652 -184z"/>
<path d="M13815 12303 c-109 -17 -1031 -263 -1435 -383 -270 -80 -859 -277
-984 -329 -125 -51 -167 -79 -206 -136 -86 -125 -89 -293 -9 -521 60 -173 150
-293 247 -327 45 -17 61 -17 149 -7 214 25 805 160 1275 291 442 123 508 128
558 46 20 -32 27 -102 12 -123 -14 -21 -71 -44 -253 -99 -247 -76 -557 -154
-615 -157 -44 -1 -50 2 -80 36 -18 21 -36 51 -39 67 -4 16 -11 31 -16 35 -8 5
-1097 -301 -1108 -311 -7 -8 61 -190 97 -260 72 -138 158 -198 302 -211 121
-11 226 13 1040 237 759 210 1506 456 1675 552 52 29 109 106 131 175 27 88
15 237 -30 375 -85 259 -196 377 -355 377 -170 0 -758 -127 -1371 -295 -332
-91 -432 -106 -486 -70 -29 18 -54 71 -54 110 0 63 18 72 320 161 253 75 454
124 511 124 42 0 51 -4 72 -32 14 -18 30 -49 36 -69 l12 -36 78 22 c43 13 289
83 547 155 258 73 473 137 478 141 23 21 -91 261 -161 339 -79 87 -224 140
-338 123z"/>
<path d="M9760 11923 c-244 -140 -424 -245 -410 -240 8 2 146 41 305 87 160
45 295 85 302 89 13 7 -55 131 -72 130 -5 0 -62 -30 -125 -66z"/>
<path d="M19415 11424 c-66 -19 -151 -44 -188 -55 l-68 -20 50 -57 c70 -81
190 -255 281 -408 217 -364 288 -584 230 -713 -60 -130 -372 -374 -865 -673
-428 -260 -644 -358 -785 -358 -158 0 -262 84 -448 363 -240 358 -379 632
-412 810 -22 120 7 184 146 317 93 89 173 152 309 245 121 83 128 88 90 76
-27 -9 -2153 -615 -2427 -692 -116 -32 -134 -49 -56 -49 20 0 39 -4 42 -9 3
-5 -213 -163 -479 -351 -267 -189 -485 -347 -485 -351 0 -4 187 -240 415 -524
229 -285 414 -519 412 -522 -3 -2 -78 7 -168 21 -90 14 -292 44 -449 66 -157
23 -370 54 -475 70 -104 15 -211 31 -237 35 l-46 6 -144 194 c-79 107 -146
195 -149 195 -3 0 -16 -73 -28 -162 -13 -90 -25 -166 -27 -169 -2 -3 -27 -2
-56 2 -499 70 -1079 157 -1084 162 -2 1 3 45 11 97 32 206 65 444 62 447 -4 3
-446 -122 -451 -128 -2 -2 -17 -34 -35 -71 -37 -78 -101 -146 -168 -180 -42
-20 -62 -23 -168 -23 -66 0 -206 6 -312 14 l-192 14 -715 -204 c-393 -112
-709 -207 -703 -210 7 -3 60 -12 120 -19 59 -7 111 -18 116 -24 18 -22 57
-471 42 -480 -3 -2 -499 -7 -1101 -11 -926 -6 -1104 -9 -1155 -22 -86 -21
-2125 -602 -2155 -614 -16 -6 146 -8 460 -5 267 2 523 0 571 -5 222 -23 328
-102 383 -288 16 -54 33 -211 23 -211 -5 0 -1310 -361 -1829 -505 -147 -41
-269 -75 -272 -75 -3 0 -6 203 -6 451 0 360 -3 450 -13 446 -7 -2 -97 -29
-201 -58 l-188 -53 7 -36 c27 -152 36 -228 46 -385 5 -99 7 -244 3 -322 l-6
-142 -52 -15 c-28 -8 -305 -85 -616 -171 -311 -86 -743 -206 -960 -266 l-395
-110 -52 25 c-65 31 -127 86 -158 140 -44 75 -72 258 -77 494 -1 68 -5 127 -8
131 -3 4 -120 -25 -260 -64 -140 -40 -258 -70 -261 -66 -4 3 -58 185 -120 403
-62 219 -114 397 -115 395 -3 -2 -258 -1194 -282 -1314 -9 -46 -21 -83 -26
-83 -6 0 -137 27 -291 60 -409 89 -796 170 -806 170 -5 0 -9 -142 -9 -317 l0
-318 328 -69 c180 -38 332 -72 339 -75 7 -4 -140 -49 -327 -100 l-340 -95 0
-313 c0 -172 4 -313 8 -313 4 0 84 23 177 50 369 110 1155 319 1430 381 158
35 212 35 311 -2 84 -31 176 -126 231 -239 40 -83 81 -196 72 -203 -2 -2 -247
-70 -544 -152 -297 -82 -545 -150 -551 -152 -6 -2 -19 15 -28 39 -24 59 -63
98 -98 98 -94 0 -731 -174 -806 -220 -28 -17 -32 -25 -32 -62 0 -52 30 -104
68 -119 45 -18 166 -3 332 40 857 221 1324 321 1500 321 158 0 276 -118 355
-354 71 -213 65 -398 -19 -507 -50 -67 -144 -110 -501 -235 l-81 -28 -372 104
c-204 57 -368 107 -364 111 4 4 53 21 109 38 141 43 165 76 124 168 -27 59
-66 77 -145 68 -69 -7 -239 -47 -431 -99 -71 -20 -143 -36 -160 -36 -16 1
-154 36 -305 78 l-275 78 -3 -309 c-1 -171 -1 -312 1 -314 3 -2 85 -26 183
-53 619 -169 930 -307 1002 -443 26 -50 27 -58 27 -197 -1 -110 -6 -171 -23
-255 -72 -351 -201 -727 -300 -872 -82 -121 -134 -148 -287 -148 -156 0 -258
16 -582 90 l-23 5 0 -313 0 -314 322 -90 323 -90 -3 -132 -3 -131 190 0 190 0
3 78 3 78 275 -77 275 -78 1165 0 1165 0 -90 23 c-49 13 -123 33 -164 46 -65
19 -73 24 -68 43 11 56 461 1653 467 1660 7 8 1087 -289 1103 -303 5 -4 -76
-306 -178 -671 -102 -365 -195 -694 -205 -731 l-19 -68 600 0 599 0 0 23 c0
21 -23 28 -360 122 -199 55 -365 102 -370 105 -6 4 293 1106 304 1118 2 1 459
-126 1017 -282 558 -156 1138 -319 1289 -361 151 -43 280 -80 286 -84 7 -4
-16 -102 -72 -301 -46 -162 -86 -305 -89 -317 l-5 -23 232 0 233 0 28 83 c53
153 125 244 236 296 70 32 144 33 311 1 275 -52 835 -189 1244 -306 l260 -74
1116 1 c613 1 1106 4 1095 6 -15 4 -881 245 -918 256 -5 1 127 133 294 292
289 277 303 289 338 287 20 -2 205 -18 411 -37 322 -30 445 -42 730 -70 25 -2
79 -7 120 -10 41 -4 85 -8 96 -10 12 -2 67 -6 123 -10 97 -7 102 -9 108 -33
11 -45 -6 -383 -27 -527 -11 -77 -20 -141 -20 -142 0 -2 78 -3 173 -3 l173 0
17 108 c9 59 31 207 48 330 28 188 35 222 48 218 9 -3 59 -8 111 -11 52 -4
102 -9 110 -10 8 -1 51 -6 95 -9 44 -4 244 -22 445 -41 201 -19 563 -53 805
-75 287 -27 442 -45 447 -53 22 -33 32 -103 32 -212 0 -105 -5 -140 -30 -227
-5 -17 8 -18 173 -18 l179 0 31 211 c17 116 33 212 35 214 2 2 46 0 98 -5 91
-9 155 -15 265 -25 28 -3 145 -14 260 -25 116 -11 239 -22 275 -25 99 -9 244
-26 248 -29 1 -2 -1 -25 -5 -52 -9 -54 5 -43 -248 -185 l-140 -79 632 0 632 0
163 91 c90 50 169 96 176 102 12 9 161 5 247 -7 40 -6 119 -13 233 -22 109 -8
122 -16 178 -104 l39 -60 197 0 198 0 -30 49 c-17 26 -30 51 -30 55 0 8 30 6
290 -19 80 -8 179 -17 220 -21 41 -3 78 -8 83 -11 4 -2 6 305 5 684 -1 378 -3
666 -5 638 -5 -78 -54 -598 -58 -620 -2 -11 -4 -30 -4 -43 -1 -22 -4 -23 -58
-17 -111 11 -909 85 -978 91 -38 3 -80 7 -93 10 -26 5 -25 -6 -7 174 2 25 7
72 10 105 8 95 35 385 40 435 3 25 9 95 15 155 5 61 26 280 45 487 19 208 35
382 35 386 0 5 17 8 38 6 20 -2 136 -13 257 -24 121 -11 243 -23 270 -25 28
-3 146 -14 264 -25 117 -11 217 -23 222 -26 5 -3 9 130 9 315 l0 321 -32 1
c-18 0 -51 2 -73 4 -22 3 -89 9 -150 15 -234 21 -442 41 -480 45 -22 3 -121
12 -220 20 -271 23 -235 4 -290 153 -177 478 -236 780 -179 921 49 123 315
267 834 453 175 62 492 162 553 173 l37 7 0 552 0 551 -58 17 c-31 10 -71 26
-88 37 l-31 19 -6 293 c-4 162 -7 528 -7 814 l0 520 95 34 95 33 0 1499 c0
825 -2 1499 -4 1499 -2 0 -139 -83 -304 -185 -166 -102 -306 -185 -311 -185
-9 0 -52 68 -461 735 -111 182 -207 335 -213 341 -9 9 -42 3 -132 -22z m-3280
-1339 c209 -30 394 -57 411 -60 28 -5 43 -24 143 -186 l111 -180 -35 -237
c-19 -130 -47 -316 -61 -412 -14 -96 -28 -190 -32 -208 l-7 -34 -79 82 -79 81
-36 -33 c-37 -35 -435 -412 -528 -502 l-53 -50 -202 28 c-112 15 -211 30 -222
33 -15 4 -17 12 -13 42 3 20 19 131 36 246 37 258 140 958 181 1235 16 113 30
209 30 213 0 5 12 6 28 3 15 -3 198 -30 407 -61z m4253 -430 c97 -45 173 -144
215 -280 20 -64 37 -158 37 -206 0 -35 -2 -38 -37 -43 -21 -3 -105 -8 -188
-11 -82 -3 -168 -8 -190 -10 -22 -2 -101 -7 -175 -10 -74 -3 -157 -8 -185 -10
-27 -2 -104 -7 -170 -10 -66 -3 -138 -8 -161 -11 l-41 -5 -10 56 -10 57 38 24
c22 13 168 103 326 200 159 97 326 200 373 230 47 29 94 54 105 54 11 0 44
-11 73 -25z m-38 -680 c93 -13 145 -26 176 -46 115 -71 186 -250 188 -474 l1
-110 -350 -84 -350 -84 -405 -6 c-469 -8 -1786 -13 -1779 -7 4 3 186 116 341
210 82 49 92 52 264 61 l101 5 6 -52 c4 -29 15 -64 25 -78 37 -50 50 -52 282
-46 118 3 242 8 275 11 33 3 125 10 205 15 159 12 205 22 220 50 15 28 12 97
-6 131 -28 56 -64 63 -294 62 -113 -1 -223 -4 -245 -7 -55 -8 -611 -20 -605
-14 5 6 685 424 730 449 16 9 70 16 145 20 156 7 1017 3 1075 -6z m-9905 -465
c77 -11 185 -27 240 -35 55 -8 208 -30 340 -50 132 -19 411 -60 620 -91 209
-30 463 -67 565 -82 l185 -27 19 -48 c11 -26 18 -49 15 -51 -6 -5 -950 -15
-1614 -17 l-540 -2 -6 79 c-4 44 -10 141 -14 218 l-7 138 28 -6 c16 -3 92 -15
169 -26z m7208 -240 c36 -57 63 -108 61 -111 -2 -4 -71 -8 -153 -8 -170 -2
-156 -10 -167 101 -14 135 -21 123 71 126 44 1 87 4 95 5 20 5 20 5 93 -113z
m-4765 -117 c67 -10 122 -21 122 -25 0 -4 -63 -8 -140 -8 l-140 0 0 25 c0 30
0 30 158 8z m4216 -733 c328 -344 595 -630 593 -636 -2 -13 -815 -789 -826
-789 -9 0 -1206 1254 -1206 1264 0 13 820 791 831 788 6 -1 279 -283 608 -627z
m2933 20 c0 -58 4 -452 7 -876 l6 -771 -392 -6 c-215 -4 -476 -7 -580 -7
l-188 0 0 173 c0 94 -3 490 -7 879 l-6 708 409 2 c225 2 486 3 579 3 l170 0 2
-105z m-1546 92 c10 -3 -318 -322 -330 -322 -5 0 -77 71 -160 158 l-151 157
293 5 c280 5 334 5 348 2z m-3881 -12 c264 -9 375 -21 368 -41 -2 -4 -133
-132 -293 -283 l-290 -276 -150 2 -150 3 -6 53 c-9 69 -30 99 -76 109 -21 4
-213 8 -428 8 -296 0 -395 -3 -412 -13 -27 -15 -46 -77 -37 -120 3 -17 18 -42
33 -55 52 -50 90 -53 731 -62 211 -3 387 -9 391 -13 3 -4 -94 -103 -217 -220
l-224 -213 -342 6 c-353 5 -627 12 -758 20 -41 2 -118 7 -170 10 -246 15 -377
36 -437 71 -114 66 -170 246 -160 511 5 149 23 221 74 297 88 133 173 158 618
181 66 4 134 8 150 10 17 2 147 7 290 11 143 4 261 8 263 9 9 8 981 4 1232 -5z
m-3087 -162 c4 -73 7 -334 7 -580 l0 -448 -150 -1 c-82 -1 -154 -3 -160 -4 -5
-1 -111 -3 -235 -4 l-225 -1 0 -299 0 -300 -580 -1 -580 -1 0 292 c0 161 -1
294 -4 296 -2 3 -175 4 -384 4 l-379 -1 -6 91 c-4 51 -7 311 -7 579 l0 487
268 6 c147 4 552 7 901 7 349 0 637 3 640 5 2 3 203 5 446 5 l442 0 6 -132z
m-3076 -143 c1 -137 4 -532 6 -877 l4 -628 -341 -1 c-187 0 -407 -2 -488 -5
-80 -3 -149 -1 -152 4 -2 4 -44 147 -92 318 l-87 309 -4 562 -4 563 288 2
c158 2 419 3 578 3 l290 0 2 -250z m6939 -282 c-3 -32 -7 -121 -11 -198 -3
-77 -7 -178 -10 -225 -3 -47 -7 -139 -10 -205 -3 -66 -10 -201 -15 -300 -5
-99 -10 -188 -10 -198 0 -20 111 -20 1083 -2 154 3 257 1 255 -4 -1 -5 -228
-223 -503 -485 l-499 -477 -246 7 -245 6 45 -48 c25 -27 78 -84 120 -127 l75
-77 -30 -29 c-17 -16 -205 -197 -420 -401 l-390 -371 -50 55 c-27 30 -297 314
-600 631 -302 317 -550 580 -550 586 0 5 186 187 414 403 l413 394 91 -94 c61
-64 93 -91 98 -83 4 7 8 92 8 188 l2 176 42 42 c120 120 933 892 940 893 4 0
5 -26 3 -57z m-2272 -615 c3 -13 6 -34 6 -46 0 -42 30 -90 63 -102 18 -7 111
-14 207 -17 96 -2 179 -5 184 -7 4 -1 -92 -98 -215 -215 l-224 -214 -380 6
c-276 5 -399 11 -448 21 -165 36 -265 115 -306 243 -25 81 -41 183 -41 275 0
61 2 67 23 71 12 2 270 5 573 6 l552 1 6 -22z m5269 -312 c131 -120 237 -219
235 -221 -5 -4 -1058 -15 -1058 -10 0 2 118 117 262 255 l262 250 31 -28 c16
-16 137 -127 268 -246z m-11456 -622 c128 -461 229 -841 225 -845 -4 -3 -116
-36 -250 -73 l-244 -67 -91 10 c-51 6 -202 20 -336 33 -224 20 -244 24 -252
43 -5 11 -76 263 -158 560 -82 297 -170 616 -196 708 -26 93 -45 170 -43 171
1 1 194 55 428 119 234 65 479 133 545 151 66 19 124 34 130 32 5 -1 114 -380
242 -842z m-1717 431 c0 -3 -138 -236 -306 -517 -168 -281 -302 -514 -297
-518 4 -4 71 -40 148 -80 158 -82 265 -140 265 -143 0 -2 -107 7 -237 19 -131
13 -265 25 -298 28 -130 12 -282 27 -330 31 -27 3 -196 18 -375 35 -179 17
-370 34 -425 40 -55 5 -127 12 -160 15 -33 3 -127 12 -210 20 -82 8 -181 17
-220 20 -38 3 -90 8 -115 11 l-45 5 -38 137 c-37 135 -42 162 -32 162 3 0 251
68 551 151 300 83 547 149 550 146 3 -3 21 -60 40 -128 18 -67 35 -123 37
-125 1 -2 45 73 97 165 l94 169 645 180 c696 194 661 185 661 177z m14371
-687 c7 -26 5 -27 -85 -58 -172 -60 -1019 -350 -1022 -350 -10 0 8 -57 176
-546 99 -289 180 -529 180 -533 0 -4 -89 -15 -197 -25 l-198 -18 -421 141
-420 142 -13 137 c-7 75 -35 358 -62 627 -27 270 -49 493 -49 497 0 8 639 13
1584 13 l520 0 7 -27z m-2639 -9 c22 -11 52 -33 65 -47 78 -84 151 -324 183
-607 6 -55 13 -116 15 -135 11 -87 17 -320 9 -320 -15 0 -1098 362 -1107 370
-7 6 770 758 786 759 4 1 26 -8 49 -20z m-5211 -32 c44 -45 61 -103 61 -206 0
-127 -18 -225 -93 -493 -10 -37 -28 -63 -80 -114 l-66 -65 -309 142 c-170 78
-428 197 -574 264 -146 67 -435 200 -643 295 -207 96 -374 177 -369 182 4 4
341 9 747 10 407 2 867 4 1022 5 281 3 283 2 304 -20z m-3147 -186 c329 -161
351 -174 410 -233 82 -82 109 -148 110 -268 0 -82 -15 -180 -33 -209 -8 -13
-35 -12 -198 3 -103 9 -201 19 -218 22 -16 3 -106 40 -200 83 -93 43 -241 111
-327 151 -87 40 -158 75 -158 79 0 3 7 28 15 56 29 94 11 117 -162 204 -56 29
-105 56 -108 61 -6 9 -65 215 -65 225 0 7 532 11 561 4 14 -4 182 -84 373
-178z m3742 83 c14 -4 24 -9 22 -13 -5 -10 -128 -125 -128 -119 0 4 31 98 45
137 3 7 12 10 21 7 9 -3 27 -9 40 -12z m799 -435 c28 -11 73 -32 100 -48 54
-31 205 -156 205 -170 0 -5 -187 -187 -416 -405 l-416 -396 -41 35 c-78 67
-101 62 -227 -43 -126 -106 -473 -444 -500 -487 -26 -41 -21 -67 23 -112 83
-88 149 -50 543 318 446 415 871 767 1008 834 116 57 266 17 419 -111 188
-156 294 -352 267 -494 -18 -97 -67 -163 -345 -460 -433 -464 -1490 -1466
-1648 -1563 -70 -43 -171 -77 -226 -77 -96 0 -219 67 -359 197 l-74 68 393
375 c216 206 405 385 420 398 l28 23 46 -36 c85 -65 111 -59 236 48 113 97
468 437 512 490 50 62 50 96 -2 148 -32 32 -46 39 -79 39 -67 0 -143 -59 -463
-360 -409 -384 -851 -756 -1006 -847 -58 -34 -144 -35 -221 -4 -155 62 -350
249 -424 407 -26 55 -33 85 -36 146 -6 110 13 156 107 269 241 291 934 976
1562 1545 275 249 298 265 409 290 65 15 136 9 205 -17z m-5107 -138 c108 -55
222 -113 252 -131 l55 -31 -70 5 c-214 16 -352 30 -371 37 -16 6 -27 29 -47
106 -29 105 -30 113 -22 113 3 0 94 -45 203 -99z m2046 -207 c160 -74 294
-138 298 -142 5 -5 -4 -7 -19 -5 -15 2 -176 16 -358 33 -181 16 -349 32 -373
36 -51 6 -52 -1 18 149 l49 104 48 -21 c26 -12 178 -81 337 -154z m-6004 -165
c462 -32 881 -96 1070 -164 136 -50 185 -94 219 -197 32 -101 40 -189 36 -408
-6 -305 -43 -588 -102 -774 -54 -171 -103 -233 -210 -266 -152 -47 -80 -61
-1108 226 l-926 259 2 150 c2 180 12 305 40 525 37 291 104 499 184 568 41 37
137 68 245 81 94 11 385 11 550 0z m11584 -165 c26 -9 45 -21 43 -28 -2 -6
-23 -69 -47 -141 -23 -71 -44 -132 -46 -134 -4 -5 -307 20 -314 26 -7 6 292
292 306 293 6 0 32 -7 58 -16z m-9634 -39 c75 -6 246 -22 330 -30 25 -3 97
-10 160 -15 63 -6 138 -13 165 -16 28 -2 217 -20 420 -39 383 -36 484 -53 582
-100 100 -49 164 -150 184 -291 29 -208 -33 -409 -152 -490 l-46 -30 63 -57
c101 -92 142 -208 130 -361 -14 -172 -61 -294 -142 -364 -57 -51 -126 -77
-230 -90 -76 -9 -98 -9 -244 3 -118 9 -824 75 -860 79 -19 3 -66 8 -105 11
-38 3 -92 8 -120 10 -269 26 -478 45 -492 45 -14 0 -15 11 -9 90 6 82 17 203
31 345 2 28 9 102 15 165 6 63 13 135 15 160 3 25 23 243 45 485 23 242 42
451 45 465 2 14 4 30 4 36 1 7 23 8 69 3 37 -4 101 -10 142 -14z m10908 -390
c-3 -2 -265 21 -448 40 -30 3 -107 10 -170 15 -63 6 -133 12 -155 15 -22 2
-67 7 -100 10 -33 4 -61 8 -62 9 -2 2 42 139 62 193 2 8 145 -35 440 -134 240
-80 435 -146 433 -148z m-8088 126 c528 -50 555 -52 559 -56 3 -3 -6 -102 -25
-295 -9 -100 -23 -249 -29 -310 -3 -36 -8 -85 -10 -110 -5 -46 -41 -432 -51
-550 -3 -36 -9 -103 -14 -150 l-8 -85 -118 -113 -119 -113 -65 6 c-194 17
-609 56 -635 59 -16 3 -76 8 -132 12 l-103 7 0 31 c0 17 4 69 10 116 5 47 12
117 15 155 3 39 10 113 15 165 6 52 17 172 25 265 9 94 17 186 20 205 2 19 6
64 9 100 5 61 41 443 52 555 9 102 15 149 19 155 2 3 61 0 132 -6 70 -7 274
-27 453 -43z m1365 -126 c143 -14 316 -30 383 -36 l124 -12 -44 -42 c-77 -76
-932 -888 -962 -914 l-29 -26 7 90 c4 50 8 104 11 120 2 17 21 216 42 444 l37
413 86 -6 c47 -4 202 -18 345 -31z m4610 -410 c251 -22 887 -97 985 -116 155
-31 260 -136 305 -304 16 -60 27 -239 18 -288 -5 -25 -8 -27 -52 -22 -25 3
-98 9 -161 15 -63 6 -135 13 -160 15 -25 3 -146 14 -270 25 -124 12 -241 23
-260 25 -19 2 -71 6 -115 10 -138 10 -135 9 -135 68 0 72 -25 111 -81 125 -65
16 -385 54 -547 65 -18 1 -31 7 -30 12 2 5 91 94 198 197 145 139 200 186 215
183 11 -2 52 -7 90 -10z m1985 -210 c19 -2 64 -6 100 -9 84 -8 481 -44 540
-51 25 -2 104 -9 175 -15 72 -6 139 -13 151 -15 23 -5 23 -1 4 -185 -4 -47 -7
-86 -6 -87 1 -2 69 54 152 122 121 102 154 124 174 120 14 -2 59 -7 100 -10
64 -5 151 -13 435 -40 28 -3 124 -12 215 -20 91 -8 210 -20 265 -25 55 -6 138
-13 185 -17 47 -3 93 -9 103 -12 19 -7 -25 -43 -685 -560 -130 -102 -236 -189
-235 -192 1 -4 200 -228 442 -499 242 -270 441 -496 443 -501 2 -5 -9 -7 -25
-4 -15 3 -107 12 -203 20 -96 9 -195 18 -220 20 -175 18 -891 84 -920 85 -8 0
-85 85 -170 189 -138 169 -174 208 -168 184 2 -8 -14 -211 -18 -225 -1 -5 -2
-31 -3 -59 l-1 -52 -87 7 c-49 4 -106 9 -128 11 -22 2 -116 11 -210 20 -93 8
-213 20 -265 25 -52 5 -131 12 -175 16 -44 4 -87 8 -95 9 -8 2 -56 6 -106 10
l-91 7 3 37 c2 20 22 230 44 466 22 237 44 477 50 535 5 58 12 134 15 170 3
36 8 83 10 105 2 22 7 67 10 100 3 33 8 78 10 100 2 22 7 76 10 120 4 44 9 88
12 98 5 20 2 20 163 2z m-2605 -399 c39 -9 176 -27 305 -41 658 -71 1141 -145
1360 -209 78 -22 89 -29 137 -80 70 -76 94 -148 100 -311 13 -312 -87 -525
-270 -576 -86 -24 -619 -11 -1092 26 -33 2 -96 7 -140 10 -93 7 -481 43 -540
50 -22 3 -170 18 -330 35 -463 48 -708 85 -704 109 1 6 338 329 476 455 l75
70 162 -13 c217 -17 201 -10 202 -82 2 -67 21 -105 62 -120 36 -14 184 -35
377 -54 88 -9 176 -18 195 -20 19 -2 100 -7 180 -11 l145 -6 23 25 c18 19 23
36 24 76 0 122 -43 138 -512 187 -320 32 -770 89 -776 97 0 1 94 93 210 205
180 173 215 201 236 197 14 -2 57 -11 95 -19z m-12062 -102 c227 -63 579 -162
782 -219 204 -57 402 -117 442 -134 130 -53 195 -109 240 -206 25 -53 28 -71
28 -160 -1 -232 -104 -435 -248 -490 l-43 -16 37 -40 c111 -120 128 -303 49
-508 -55 -143 -138 -233 -240 -263 -64 -19 -240 -15 -320 6 -143 38 -1634 457
-1635 459 -1 1 104 381 234 844 157 561 240 843 249 843 7 0 198 -52 425 -116z
m8671 -623 c185 -194 336 -357 334 -362 -2 -5 -124 -124 -273 -266 -148 -141
-270 -260 -270 -264 0 -4 58 -69 130 -145 71 -75 120 -134 110 -131 -11 4
-391 110 -845 237 -454 127 -835 234 -848 238 -21 7 42 69 589 591 l611 583
63 -63 c34 -35 214 -223 399 -418z"/>
<path d="M9525 11085 c-566 -162 -1145 -327 -1285 -367 -140 -39 -256 -72
-257 -73 -5 -3 309 -1100 317 -1108 4 -5 173 39 374 96 359 102 368 104 375
83 4 -11 41 -139 82 -283 47 -166 79 -263 87 -263 13 0 1092 307 1098 312 1 2
-33 127 -76 278 -44 151 -80 280 -80 286 0 6 163 57 363 113 199 57 365 106
368 110 12 11 -307 1106 -322 1108 -8 1 -477 -130 -1044 -292z"/>
<path d="M7060 10381 c-488 -140 -545 -159 -543 -176 3 -34 465 -1650 474
-1660 6 -5 214 49 549 145 298 85 545 157 550 160 7 4 -246 915 -455 1638 -9
28 -19 52 -23 51 -4 -1 -252 -72 -552 -158z"/>
<path d="M5860 10019 c-47 -4 -106 -12 -130 -19 -131 -33 -1566 -444 -1572
-449 -6 -6 463 -1676 474 -1686 9 -10 1656 468 1725 500 197 91 273 205 260
390 -19 251 -132 433 -302 484 -22 7 -46 15 -54 17 -11 4 -11 8 2 22 9 10 28
44 44 77 24 52 27 72 27 150 -1 185 -106 398 -234 477 -61 37 -123 47 -240 37z"/>
<path d="M3401 9320 c-273 -35 -793 -171 -1170 -306 -164 -59 -353 -153 -414
-205 -67 -58 -89 -105 -95 -210 -9 -163 35 -399 143 -757 80 -270 141 -407
212 -483 141 -151 333 -148 938 17 676 184 1045 341 1117 476 21 40 23 55 23
198 -1 172 -15 256 -86 515 -83 306 -182 542 -273 656 -61 78 -110 100 -228
104 -51 2 -126 0 -167 -5z"/>
<path d="M209 8934 c-24 -86 -49 -158 -55 -161 -7 -2 -44 4 -83 15 l-71 20 1
-1346 c0 -741 2 -1342 5 -1337 4 11 197 913 294 1375 22 107 44 202 48 211 6
14 65 3 462 -82 250 -54 467 -100 481 -103 26 -5 26 -5 -116 491 -85 298 -147
498 -156 503 -8 4 -128 40 -268 79 -140 39 -255 72 -256 73 -1 2 -15 28 -32
58 -81 151 -196 350 -203 355 -4 3 -27 -65 -51 -151z"/>
</g>
</svg>
