<?xml version="1.0" encoding="utf-8"?>
<!-- Generator: Adobe Illustrator 26.1.0, SVG Export Plug-In . SVG Version: 6.00 Build 0)  -->
<svg version="1.1" id="Слой_1" xmlns="http://www.w3.org/2000/svg" xmlns:xlink="http://www.w3.org/1999/xlink" x="0px" y="0px"
	 viewBox="0 0 1920 1080" style="enable-background:new 0 0 1920 1080;" xml:space="preserve">
<style type="text/css">
	.st0{fill:#1D1D1C;}
	.st1{fill:#EBEBEB;}
</style>
<g>
	<rect x="0.29" y="389.1" class="st0" width="1920" height="302.24"/>
	<path class="st1" d="M0.29,389.1l0,302.24l1920,0l0-302.24L0.29,389.1z M279.58,617.32c-11.1,9.01-44.9,13.57-101.16,13.57
		c-41.08,0-68.1-1.48-80.93-4.44c-16.04-3.82-26.28-12.09-30.59-24.67c-3.21-9.75-4.93-30.22-4.93-61.43
		c0-42.93,5.18-68.59,15.3-76.98c11.23-9.25,44.9-13.82,101.16-13.82c56.13,0,89.81,4.44,100.91,13.57
		c10.61,8.51,15.79,34.29,15.79,77.22C295.12,583.27,289.94,608.93,279.58,617.32z M535.92,617.44c-8.39,7.4-22.2,11.1-41.7,11.1
		H330.15V451.89l157.66,0c17.02,0,29.36,2.47,37.01,7.4c11.6,7.4,17.27,21.59,17.27,42.44c0,9.25-1.73,17.02-5.18,23.32
		c-3.45,6.17-7.65,10.49-12.83,12.83c16.28,7.15,24.43,21.09,24.43,41.7C548.5,597.33,544.31,610.04,535.92,617.44z M692.84,628.42
		H576.88l0-176.41h115.96V628.42z M1002.48,568.46h-77.72v60.08H808.8v-60.08h-77.96V451.89l271.64,0L1002.48,568.46z
		 M1358.99,622.5c-12.46,5.55-102.27,8.39-146.06,8.39c-33.68,0-117.19-0.74-127.31-2.22c-15.42-2.34-25.91-7.77-31.58-16.16
		c-5.55-8.51-8.39-23.19-8.39-44.04l115.96,0c0,9.87,2.22,15.54,6.42,17.27c4.32,1.6,19.37,2.47,45.15,2.47
		c26.15,0,41.33-0.49,45.4-1.23c4.19-0.86,6.17-4.07,6.17-9.62c0-6.78-2.84-10.98-8.64-12.71c-5.67-1.73-19.98-2.59-42.93-2.59
		c-45.15,0-135.45-3.33-147.29-9.87c-11.84-6.66-17.76-22.95-17.76-48.85c0-24.05,7.77-39.48,23.19-46.14
		c11.84-5.18,99.92-7.65,140.63-7.65c36.39,0,121.14,0.99,130.76,2.96c22.95,4.56,34.29,23.93,34.29,58.23h-115.96
		c0-9.38-1.97-14.93-6.17-16.41c-4.07-1.6-18.26-2.34-42.68-2.34c-24.43,0-38.61,0.37-42.44,1.36c-3.7,0.86-5.67,4.19-5.67,9.99
		c0,6.04,3.21,9.99,9.62,11.84c6.41,1.73,19.61,2.71,39.48,2.71c44.78,0,135.33,3.45,148.16,10.61
		c12.95,7.03,19.37,23.31,19.37,48.85C1380.7,600.79,1373.55,615.83,1358.99,622.5z M1575.37,628.29l-35.53-35.53v35.53h-115.96
		V452.13l115.96,0v28.25l28.13-28.25h136.44l-88.08,83.89l99.43,92.27H1575.37z M1858.6,628.42h-115.96V452.01h115.96V628.42z"/>
</g>
</svg>
